<?xml version="1.0" encoding="utf-8"?>
<!-- Generator: Adobe Illustrator 16.0.0, SVG Export Plug-In . SVG Version: 6.00 Build 0)  -->
<!DOCTYPE svg PUBLIC "-//W3C//DTD SVG 1.1//EN" "http://www.w3.org/Graphics/SVG/1.1/DTD/svg11.dtd">
<svg version="1.1" id="Layer_1" xmlns="http://www.w3.org/2000/svg" xmlns:xlink="http://www.w3.org/1999/xlink" x="0px" y="0px"
	 width="30px" height="30px" viewBox="0 0 30 30" enable-background="new 0 0 30 30" xml:space="preserve">
<path fill="none" d="M24,7H6v4h18V7z M9,10H7V8h2V10z M12,10h-2V8h2V10z M13,10V8h2v2H13z"/>
<rect x="6" y="13" fill="none" width="18" height="10"/>
<rect x="13" y="8" fill="#FFFFFF" width="2" height="2"/>
<rect x="10" y="8" fill="#FFFFFF" width="2" height="2"/>
<rect x="7" y="8" fill="#FFFFFF" width="2" height="2"/>
<path fill="#FFFFFF" d="M26,5H4v20h22V5z M6,7h18v4H6V7z M24,23H6V13h18V23z"/>
<polygon fill="none" points="12,17 14,17 14,15 16,15 16,17 18,17 18,19 16,19 16,21 14,21 14,19 12,19 "/>
<path fill="none" d="M12.027,22.318l7.501-4.501L23,20.131V13H7v8.387l2.072-1.029L12.027,22.318z M12.8,13.732
	c1.62,0,2.934,1.313,2.934,2.934c0,1.621-1.313,2.934-2.934,2.934s-2.934-1.312-2.934-2.934C9.867,15.046,11.18,13.732,12.8,13.732z
	"/>
<polygon fill="none" points="11.974,24.682 8.929,22.662 7,23.62 7,25 23,25 23,22.535 19.472,20.183 "/>
<circle fill="none" cx="12.8" cy="16.666" r="0.934"/>
<path fill="#FFFFFF" d="M6,21.282l2.928-1.143l3.045,1.726l7.499-3.844L24,20.031v-2.053L19.529,16l-7.501,3.845L9.072,18.17
	L6,19.574V21.282z"/>
<path fill="#FFFFFF" d="M11.8,17.6c1.068,0,1.934-0.865,1.934-1.934c0-1.068-0.866-1.934-1.934-1.934s-1.934,0.866-1.934,1.934
	C9.867,16.734,10.732,17.6,11.8,17.6z M11.8,15.051c0.339,0,0.615,0.276,0.615,0.615s-0.276,0.615-0.615,0.615
	s-0.615-0.276-0.615-0.615S11.461,15.051,11.8,15.051z"/>
</svg>
