<?xml version="1.0" encoding="utf-8"?>

<!DOCTYPE svg PUBLIC "-//W3C//DTD SVG 1.1//EN" "http://www.w3.org/Graphics/SVG/1.1/DTD/svg11.dtd">
<svg version="1.1" id="Layer_1" xmlns="http://www.w3.org/2000/svg" xmlns:xlink="http://www.w3.org/1999/xlink" x="0px" y="0px"
	 width="30px" height="30px" viewBox="0 0 30 30" enable-background="new 0 0 30 30" xml:space="preserve">
<g>
	<path fill="none" d="M6,22h12v-8H6V22z M9,17h2v-2h2v2h2v2h-2v2h-2v-2H9V17z"/>
	<g>
		<path fill="#FFFFFF" d="M20,12H4v12h16V12z M18,22H6v-8h12V22z"/>
		<polygon fill="#FFFFFF" points="8,7 8,10 9,10 10,10 10,8 24,8 24,17 22,17 22,18 22,19 25,19 26,19 26,6 8,6 		"/>
		<polygon fill="#FFFFFF" points="11,21 13,21 13,19 15,19 15,17 13,17 13,15 11,15 11,17 9,17 9,19 11,19 		"/>
	</g>
</g>
</svg>
