<?xml version="1.0" encoding="utf-8"?>

<!DOCTYPE svg PUBLIC "-//W3C//DTD SVG 1.1//EN" "http://www.w3.org/Graphics/SVG/1.1/DTD/svg11.dtd">
<svg version="1.1" id="Layer_1" xmlns="http://www.w3.org/2000/svg" xmlns:xlink="http://www.w3.org/1999/xlink" x="0px" y="0px"
	 width="30px" height="30px" viewBox="0 0 30 30" enable-background="new 0 0 30 30" xml:space="preserve">
<g>
	<polygon fill="none" points="19.438,16.204 11.973,20.682 9.054,18.745 7.123,20.282 7,20.128 7,21 23,21 23,18.667 22.9,18.8 	"/>
	<path fill="none" d="M12.027,18.318l7.535-4.521L23,16.375V9H7v8.824l1.946-1.549L12.027,18.318z M12.8,9.732
		c1.62,0,2.934,1.313,2.934,2.934c0,1.621-1.313,2.934-2.934,2.934s-2.934-1.312-2.934-2.934C9.866,11.046,11.18,9.732,12.8,9.732z"
		/>
	<circle fill="none" cx="12.8" cy="12.666" r="0.934"/>
	<g>
		<path fill="#FFFFFF" d="M25,7H5v16h20V7z M7,9h16v7.375l-3.438-2.579l-7.535,4.521l-3.081-2.043L7,17.824V9z M23,21H7v-0.872
			l0.123,0.154l1.931-1.537l2.919,1.937l7.465-4.479L22.9,18.8l0.1-0.133V21z"/>
		<path fill="#FFFFFF" d="M12.8,15.6c1.62,0,2.934-1.312,2.934-2.934c0-1.62-1.313-2.934-2.934-2.934s-2.934,1.313-2.934,2.934
			C9.866,14.287,11.18,15.6,12.8,15.6z M12.8,11.732c0.515,0,0.934,0.419,0.934,0.934S13.314,13.6,12.8,13.6
			s-0.934-0.419-0.934-0.934S12.285,11.732,12.8,11.732z"/>
	</g>
</g>
</svg>
