<?xml version="1.0" encoding="utf-8"?>

<!DOCTYPE svg PUBLIC "-//W3C//DTD SVG 1.1//EN" "http://www.w3.org/Graphics/SVG/1.1/DTD/svg11.dtd">
<svg version="1.1" id="Layer_1" xmlns="http://www.w3.org/2000/svg" xmlns:xlink="http://www.w3.org/1999/xlink" x="0px" y="0px"
	 width="30px" height="30px" viewBox="0 0 30 30" enable-background="new 0 0 30 30" xml:space="preserve">
<g>
	<path fill="none" d="M23,9H7v4h16V9z M10,12H8v-2h2V12z M13,12h-2v-2h2V12z M14,12v-2h2v2H14z"/>
	<rect x="7" y="15" fill="none" width="16" height="6"/>
	<g>
		<rect x="14" y="10" fill="#FFFFFF" width="2" height="2"/>
		<rect x="11" y="10" fill="#FFFFFF" width="2" height="2"/>
		<rect x="8" y="10" fill="#FFFFFF" width="2" height="2"/>
		<path fill="#FFFFFF" d="M25,15v-2V7H5v6v2v8h20V15z M7,9h16v4H7V9z M23,21H7v-6h16V21z"/>
	</g>
</g>
</svg>
