<?xml version="1.0" encoding="utf-8"?>

<!DOCTYPE svg PUBLIC "-//W3C//DTD SVG 1.1//EN" "http://www.w3.org/Graphics/SVG/1.1/DTD/svg11.dtd">
<svg version="1.1" id="Layer_1" xmlns="http://www.w3.org/2000/svg" xmlns:xlink="http://www.w3.org/1999/xlink" x="0px" y="0px"
	 width="30px" height="30px" viewBox="0 0 30 30" enable-background="new 0 0 30 30" xml:space="preserve">
<g>
	<rect x="13" y="7" fill="none" width="4" height="1"/>
	<path fill="none" d="M19.494,23l1.625-13H8.781l1.625,13H19.494z M17.572,11.246l1.992,0.181l-0.905,9.95l-1.992-0.181
		L17.572,11.246z M13.95,11.336h2v9.95h-2V11.336z M12.328,11.246l0.905,9.95l-1.992,0.181l-0.905-9.95L12.328,11.246z"/>
	<g>
		<path fill="#FFFFFF" d="M24.9,8H19V5h-8v3H5v2h1.765L8.64,25h12.62l1.875-15H24.9V8z M13,7h4v1h-4V7z M19.494,23h-9.088L8.781,10
			h12.338L19.494,23z"/>
		
			<rect x="10.784" y="11.316" transform="matrix(-0.9959 0.0903 -0.0903 -0.9959 24.9929 31.4916)" fill="#FFFFFF" width="2" height="9.991"/>
		<rect x="13.95" y="11.336" fill="#FFFFFF" width="2" height="9.95"/>
		
			<rect x="17.116" y="11.316" transform="matrix(0.9959 0.0903 -0.0903 0.9959 1.5472 -1.5695)" fill="#FFFFFF" width="2" height="9.991"/>
	</g>
</g>
</svg>
