<?xml version="1.0" encoding="UTF-8" standalone="no"?>
<svg
   xmlns:dc="http://purl.org/dc/elements/1.1/"
   xmlns:cc="http://creativecommons.org/ns#"
   xmlns:rdf="http://www.w3.org/1999/02/22-rdf-syntax-ns#"
   xmlns:svg="http://www.w3.org/2000/svg"
   xmlns="http://www.w3.org/2000/svg"
   xmlns:sodipodi="http://sodipodi.sourceforge.net/DTD/sodipodi-0.dtd"
   xmlns:inkscape="http://www.inkscape.org/namespaces/inkscape"
   version="1.1"
   id="Layer_1"
   x="0px"
   y="0px"
   width="30px"
   height="30px"
   viewBox="0 0 30 30"
   enable-background="new 0 0 30 30"
   xml:space="preserve"
   inkscape:version="0.48.5 r10040"
   sodipodi:docname="imgRepeat.svg"><metadata
     id="metadata35"><rdf:RDF><cc:Work
         rdf:about=""><dc:format>image/svg+xml</dc:format><dc:type
           rdf:resource="http://purl.org/dc/dcmitype/StillImage" /><dc:title></dc:title></cc:Work></rdf:RDF></metadata><defs
     id="defs33" /><sodipodi:namedview
     pagecolor="#ffffff"
     bordercolor="#666666"
     borderopacity="1"
     objecttolerance="10"
     gridtolerance="10"
     guidetolerance="10"
     inkscape:pageopacity="0"
     inkscape:pageshadow="2"
     inkscape:window-width="910"
     inkscape:window-height="697"
     id="namedview31"
     showgrid="false"
     inkscape:zoom="7.8666667"
     inkscape:cx="15"
     inkscape:cy="15.063559"
     inkscape:window-x="0"
     inkscape:window-y="0"
     inkscape:window-maximized="0"
     inkscape:current-layer="Layer_1" /><g
     style="font-size:40px;font-style:normal;font-variant:normal;font-weight:normal;font-stretch:normal;line-height:125%;letter-spacing:0px;word-spacing:0px;fill:#ffffff;fill-opacity:1;stroke:none;font-family:Courier New;-inkscape-font-specification:Courier New"
     id="text3014"><path
       d="m 9.203594,10.522984 c 0,-1.3439991 0.1200012,-2.0640007 1.32,-2.2800005 0.647999,-0.1199998 1.32,-0.024001 1.32,-0.912 0,-0.5759994 -0.360001,-0.936 -0.888,-0.936 -3.1679969,0 -3.72,1.5840032 -3.72,4.7280005 l 0,0.744 c 0,2.639997 -1.0320015,2.448 -2.448,2.808 -0.4799996,0.119999 -0.72,0.36 -0.72,0.888 0,0.575999 0.2160006,0.84 0.864,0.96 1.5359984,0.263999 2.304,0.432002 2.304,2.76 l 0,0.744 c 0,3.095996 0.576003,4.704 3.6,4.704 0.671999,0 1.008,-0.336001 1.008,-0.936 0,-0.96 -0.816001,-0.792001 -1.464,-0.96 -1.1039989,-0.264 -1.176,-0.864002 -1.176,-2.208 l 0,-1.104 c 0,-2.207998 -0.3360018,-3.408001 -2.136,-3.96 1.7999982,-0.528 2.136,-1.704003 2.136,-3.936 l 0,-1.104"
       style="font-size:24px;font-family:Courier 10 Pitch;-inkscape-font-specification:Courier 10 Pitch;fill:#ffffff"
       id="path3019" /><path
       d="m 21.145094,10.522984 0,1.104 c 0,2.231997 0.336002,3.408 2.136,3.936 -1.799998,0.551999 -2.136,1.752002 -2.136,3.96 l 0,1.104 c 0,1.367998 -0.096,2.016 -1.32,2.232 -0.671999,0.119999 -1.32,0.072 -1.32,0.936 0,0.599999 0.360001,0.936 1.032,0.936 3.023997,0 3.576,-1.608004 3.576,-4.704 l 0,-0.744 c 0,-2.327998 0.768001,-2.496001 2.304,-2.76 0.647999,-0.12 0.864,-0.384001 0.864,-0.96 0,-0.528 -0.240001,-0.768001 -0.72,-0.888 -1.415999,-0.36 -2.448,-0.168003 -2.448,-2.808 l 0,-0.744 c 0,-3.1439973 -0.552003,-4.7280005 -3.72,-4.7280005 -0.528,0 -0.888,0.3600006 -0.888,0.936 0,0.9599991 0.840001,0.7920002 1.464,0.96 1.103999,0.2879997 1.176,0.9120014 1.176,2.2320005"
       style="font-size:24px;font-family:Courier 10 Pitch;-inkscape-font-specification:Courier 10 Pitch;fill:#ffffff"
       id="path3021" /></g></svg>