<?xml version="1.0" encoding="utf-8"?>

<!DOCTYPE svg PUBLIC "-//W3C//DTD SVG 1.1//EN" "http://www.w3.org/Graphics/SVG/1.1/DTD/svg11.dtd">
<svg version="1.1" id="Layer_1" xmlns="http://www.w3.org/2000/svg" xmlns:xlink="http://www.w3.org/1999/xlink" x="0px" y="0px"
	 width="30px" height="30px" viewBox="0 0 30 30" enable-background="new 0 0 30 30" xml:space="preserve">
<g>
	<g>
		<path fill="#FFFFFF" d="M21.107,22.166c0.365,0,0.718-0.032,1.059-0.096c0.34-0.063,0.618-0.143,0.834-0.236v-1.469
			c-0.476,0.148-0.952,0.224-1.428,0.224c-0.382,0-0.69-0.112-0.926-0.336c-0.235-0.225-0.353-0.571-0.353-1.042v-4.914h2.615
			v-1.478h-2.615v-2.042H19.09l-0.664,1.942l-1.345,0.714v0.863h1.253v4.947C18.335,21.192,19.259,22.166,21.107,22.166z"/>
		<polygon fill="#FFFFFF" points="12.312,22 12.312,10 16.312,10 16.312,8 6.312,8 6.312,10 10.312,10 10.312,22 		"/>
	</g>
</g>
</svg>
