<?xml version="1.0" encoding="utf-8"?>

<!DOCTYPE svg PUBLIC "-//W3C//DTD SVG 1.1//EN" "http://www.w3.org/Graphics/SVG/1.1/DTD/svg11.dtd">
<svg version="1.1" id="Layer_1" xmlns="http://www.w3.org/2000/svg" xmlns:xlink="http://www.w3.org/1999/xlink" x="0px" y="0px"
	 width="30px" height="30px" viewBox="0 0 30 30" enable-background="new 0 0 30 30" xml:space="preserve">
<g>
	<path fill="none" d="M14.096,17.434L21,14.179v-0.185c-0.042,0-0.083,0.006-0.125,0.006c-2.583,0-4.777-1.679-5.562-4H7v7.13
		l3.677-1.966L14.096,17.434z M12.882,11.344c0.905,0,1.639,0.732,1.639,1.639c0,0.905-0.733,1.639-1.639,1.639
		s-1.638-0.733-1.638-1.639C11.244,12.076,11.977,11.344,12.882,11.344z"/>
	<polygon fill="none" points="10.565,17.49 7,19.397 7,21 21,21 21,16.39 13.93,19.723 	"/>
	<g>
		<path fill="#FFFFFF" d="M5,23h17h1v-9.404c-0.41,0.16-0.842,0.273-1.29,0.338c-0.09,0.013-0.179,0.029-0.27,0.038
			c-0.146,0.014-0.293,0.019-0.44,0.022v0.185l-6.904,3.255l-3.419-2.27L7,17.13V10h8.312C15.113,9.41,15,8.781,15,8.125V8H5V23z
			 M10.565,17.49l3.364,2.232L21,16.39V21H7v-1.603L10.565,17.49z"/>
		<circle fill="#FFFFFF" cx="12.882" cy="12.982" r="1.638"/>
		<path fill="#FFFFFF" d="M24.75,8.125c0-2.094-1.672-3.795-3.75-3.862v-1V3.149L20.866,3.25l-0.991,0.744l-1,0.75l-0.518,0.389
			l0.518,0.388l1,0.75L20.848,7L21,7.114V7.025V6.013C22.07,6.076,22.924,6.93,22.987,8C22.99,8.042,23,8.082,23,8.125
			c0,1.129-0.887,2.046-2,2.112c-0.042,0.003-0.082,0.013-0.125,0.013c-0.354,0-0.685-0.096-0.979-0.25
			c-0.678-0.355-1.146-1.058-1.146-1.875H17c0,0.684,0.193,1.316,0.505,1.875c0.663,1.187,1.917,2,3.37,2
			c0.043,0,0.082-0.012,0.125-0.013c0.736-0.024,1.422-0.247,2-0.628C24.052,10.666,24.75,9.477,24.75,8.125z"/>
	</g>
</g>
</svg>
