<?xml version="1.0" encoding="UTF-8" standalone="no"?>
<svg
   xmlns:dc="http://purl.org/dc/elements/1.1/"
   xmlns:cc="http://creativecommons.org/ns#"
   xmlns:rdf="http://www.w3.org/1999/02/22-rdf-syntax-ns#"
   xmlns:svg="http://www.w3.org/2000/svg"
   xmlns="http://www.w3.org/2000/svg"
   xmlns:sodipodi="http://sodipodi.sourceforge.net/DTD/sodipodi-0.dtd"
   xmlns:inkscape="http://www.inkscape.org/namespaces/inkscape"
   version="1.1"
   id="Layer_1"
   x="0px"
   y="0px"
   width="30px"
   height="30px"
   viewBox="0 0 30 30"
   enable-background="new 0 0 30 30"
   xml:space="preserve"
   inkscape:version="0.48.5 r10040"
   sodipodi:docname="imgStretchAspectRatio.svg"><metadata
     id="metadata17"><rdf:RDF><cc:Work
         rdf:about=""><dc:format>image/svg+xml</dc:format><dc:type
           rdf:resource="http://purl.org/dc/dcmitype/StillImage" /><dc:title></dc:title></cc:Work></rdf:RDF></metadata><defs
     id="defs15" /><sodipodi:namedview
     pagecolor="#ffffff"
     bordercolor="#666666"
     borderopacity="1"
     objecttolerance="10"
     gridtolerance="10"
     guidetolerance="10"
     inkscape:pageopacity="0"
     inkscape:pageshadow="2"
     inkscape:window-width="1018"
     inkscape:window-height="829"
     id="namedview13"
     showgrid="false"
     inkscape:zoom="7.8666667"
     inkscape:cx="15"
     inkscape:cy="25.169492"
     inkscape:window-x="0"
     inkscape:window-y="0"
     inkscape:window-maximized="0"
     inkscape:current-layer="Layer_1" /><g
     id="g3"
     transform="translate(-2.6694915,0)"><path
       d="M 9,21 H 21 V 9 H 9 v 12 z m 2,-6 1.293,1.293 4,-3.999 L 15,11 h 4 l -0.001,4 -1.292,-1.292 -4,3.999 L 15,18.999 11,19 v -4 z"
       id="path5"
       inkscape:connector-curvature="0"
       style="fill:none" /><g
       id="g7"><path
         d="M 23,7 H 7 V 23 H 23 V 7 z M 21,21 H 9 V 9 h 12 v 12 z"
         id="path9"
         inkscape:connector-curvature="0"
         style="fill:#ffffff" /><polygon
         points="18.999,15 19,11 15,11 16.293,12.294 12.293,16.293 11,15 11,19 15,18.999 13.707,17.707 17.707,13.708 "
         id="polygon11"
         style="fill:#ffffff" /></g></g><path
     id="path5-5"
     d="M 0.9915254,12.483051 H 12.991525 V 0.4830508 H 0.9915254 V 12.483051 z m 2,-6.0000002 1.293,1.293 4,-3.999 -1.293,-1.294 h 3.9999996 l -10e-4,4 -1.2919996,-1.292 -4,3.999 1.293,1.2920002 -4,10e-4 V 6.4830508 z"
     inkscape:connector-curvature="0"
     style="fill:none" /><path
     style="fill:#ffffff"
     inkscape:connector-curvature="0"
     d="M 25.415253,6.9999999 H 3.5677966 V 23.000001 H 25.415253 V 6.9999999 z M 22.684321,21.000001 H 6.2987288 V 8.9999999 H 22.684321 V 21.000001 z"
     id="path9-8" /></svg>