<?xml version="1.0" encoding="utf-8"?>

<!DOCTYPE svg PUBLIC "-//W3C//DTD SVG 1.1//EN" "http://www.w3.org/Graphics/SVG/1.1/DTD/svg11.dtd">
<svg version="1.1" id="Layer_1" xmlns="http://www.w3.org/2000/svg" xmlns:xlink="http://www.w3.org/1999/xlink" x="0px" y="0px"
	 width="30px" height="30px" viewBox="0 0 30 30" enable-background="new 0 0 30 30" xml:space="preserve">
<g>
	<polygon fill="none" points="9.67,21.386 8,22.335 8,23 15,23 15,20.475 11.48,22.587 	"/>
	<polygon fill="none" points="11.52,9.815 15,7.728 15,7.002 8,7.002 8,9.612 9.73,8.628 	"/>
	<polygon fill="none" points="11.52,20.813 15,18.726 15,18 8,18 8,20.61 9.73,19.626 	"/>
	<polygon fill="none" points="9.67,10.388 8,11.337 8,12.002 15,12.002 15,9.477 11.48,11.589 	"/>
	<g>
		<polygon fill="#FFFFFF" points="22,8 19,12 21,12 21,22 23,22 23,12 25,12 		"/>
		<path fill="#FFFFFF" d="M6,14.002h11v-9H6V14.002z M15,12.002H8v-0.665l1.67-0.949l1.81,1.201L15,9.477V12.002z M8,7.002h7v0.726
			l-3.48,2.088L9.73,8.628L8,9.612V7.002z"/>
		<path fill="#FFFFFF" d="M6,25h11v-9H6V25z M15,23H8v-0.665l1.67-0.949l1.81,1.201L15,20.475V23z M8,18h7v0.726l-3.48,2.088
			l-1.79-1.188L8,20.61V18z"/>
	</g>
</g>
</svg>
