<?xml version="1.0" encoding="utf-8"?>
<!-- Generator: Adobe Illustrator 16.0.0, SVG Export Plug-In . SVG Version: 6.00 Build 0)  -->
<!DOCTYPE svg PUBLIC "-//W3C//DTD SVG 1.1//EN" "http://www.w3.org/Graphics/SVG/1.1/DTD/svg11.dtd">
<svg version="1.1" id="Layer_1" xmlns="http://www.w3.org/2000/svg" xmlns:xlink="http://www.w3.org/1999/xlink" x="0px" y="0px"
	 width="30px" height="30px" viewBox="0 0 30 30" enable-background="new 0 0 30 30" xml:space="preserve">
<path fill="none" d="M9,11H7V9h2V11z M12,11h-2V9h2V11z M13,11V9h2v2H13z"/>
<polyline fill="none" points="6,14 6,23 23,23 23,14 "/>
<rect x="13" y="9" fill="#FFFFFF" width="2" height="2"/>
<rect x="10" y="9" fill="#FFFFFF" width="2" height="2"/>
<rect x="7" y="9" fill="#FFFFFF" width="2" height="2"/>
<path fill="#FFFFFF" d="M23,14v9H6v-9h12v-2H6V8h14l2-2H4v19h21V11L23,14L23,14z"/>
<path fill="#FFFFFF" d="M6,21.282l2.928-1.143l3.045,1.726l7.499-3.844L23,20.031v-2.053L19.528,16l-7.501,3.845L9.072,18.17
	L6,19.574V21.282z"/>
<path fill="#FFFFFF" d="M11.983,18.232c0.967,0,1.75-0.783,1.75-1.75c0-0.966-0.783-1.75-1.75-1.75s-1.75,0.784-1.75,1.75
	C10.233,17.449,11.017,18.232,11.983,18.232z M11.983,15.926c0.307,0,0.557,0.25,0.557,0.557s-0.25,0.557-0.557,0.557
	s-0.557-0.25-0.557-0.557S11.677,15.926,11.983,15.926z"/>
<polygon fill="#FFFFFF" points="26.404,3.661 25.158,5.196 20.48,10.843 20,13 22.014,12.09 26.691,6.444 27.941,4.908 "/>
</svg>
