<?xml version="1.0" encoding="utf-8"?>

<!DOCTYPE svg PUBLIC "-//W3C//DTD SVG 1.1//EN" "http://www.w3.org/Graphics/SVG/1.1/DTD/svg11.dtd">
<svg version="1.1" id="Layer_1" xmlns="http://www.w3.org/2000/svg" xmlns:xlink="http://www.w3.org/1999/xlink" x="0px" y="0px"
	 width="30px" height="30px" viewBox="0 0 30 30" enable-background="new 0 0 30 30" xml:space="preserve">
<g>
	<path fill="none" d="M12.027,18.318l7.501-4.501L23,16.131V9H7v8.387l2.072-1.029L12.027,18.318z M12.8,9.732
		c1.62,0,2.934,1.313,2.934,2.934c0,1.621-1.313,2.934-2.934,2.934s-2.934-1.312-2.934-2.934C9.866,11.046,11.18,9.732,12.8,9.732z"
		/>
	<polygon fill="none" points="11.973,20.682 8.928,18.662 7,19.62 7,21 23,21 23,18.535 19.472,16.183 	"/>
	<circle fill="none" cx="12.8" cy="12.666" r="0.934"/>
	<g>
		<path fill="#FFFFFF" d="M25,7H5v16h20V7z M7,9h16v7.131l-3.472-2.314l-7.501,4.501l-2.955-1.96L7,17.387V9z M23,21H7v-1.38
			l1.928-0.958l3.045,2.02l7.499-4.499L23,18.535V21z"/>
		<path fill="#FFFFFF" d="M12.8,15.6c1.62,0,2.934-1.312,2.934-2.934c0-1.62-1.313-2.934-2.934-2.934s-2.934,1.313-2.934,2.934
			C9.866,14.287,11.18,15.6,12.8,15.6z M12.8,11.732c0.515,0,0.934,0.419,0.934,0.934S13.314,13.6,12.8,13.6
			s-0.934-0.419-0.934-0.934S12.285,11.732,12.8,11.732z"/>
	</g>
</g>
</svg>
