<?xml version="1.0" encoding="utf-8"?>

<!DOCTYPE svg PUBLIC "-//W3C//DTD SVG 1.1//EN" "http://www.w3.org/Graphics/SVG/1.1/DTD/svg11.dtd">
<svg version="1.1" id="Layer_1" xmlns="http://www.w3.org/2000/svg" xmlns:xlink="http://www.w3.org/1999/xlink" x="0px" y="0px"
	 width="30px" height="30px" viewBox="0 0 30 30" enable-background="new 0 0 30 30" xml:space="preserve">
<g>
	<g>
		<polygon fill="#FFFFFF" points="23,21 23,17 21,18 21,21 19,21 22,25 25,21 		"/>
		<path fill="#FFFFFF" d="M15,19.118l4.788-2.394l2.635-1.317l2.612-1.306l-3.899-1.95l3.899-1.95L15,5.184L4.964,10.201l3.9,1.95
			l-3.9,1.95L15,19.118z M15,7.42l5.563,2.781L18.9,11.033l-1.118,0.559l-1.118,0.559L15,12.983l-1.664-0.832l-1.118-0.559
			L11.1,11.033l-1.663-0.832L15,7.42z M15,15.219l3.9-1.95l1.664,0.832L15,16.882l-5.563-2.781l1.664-0.832L15,15.219z"/>
	</g>
</g>
</svg>
