<?xml version="1.0" encoding="utf-8"?>

<!DOCTYPE svg PUBLIC "-//W3C//DTD SVG 1.1//EN" "http://www.w3.org/Graphics/SVG/1.1/DTD/svg11.dtd">
<svg version="1.1" id="Layer_1" xmlns="http://www.w3.org/2000/svg" xmlns:xlink="http://www.w3.org/1999/xlink" x="0px" y="0px"
	 width="30px" height="30px" viewBox="0 0 30 30" enable-background="new 0 0 30 30" xml:space="preserve">
<g>
	<g>
		<polygon fill="#FFFFFF" points="21,12 23,13 23,9 25,9 22,5 19,9 21,9 		"/>
		<path fill="#FFFFFF" d="M15.201,25.118l10.035-5.017l-3.899-1.95l3.899-1.95l-2.994-1.497l-2.273-1.137l-4.768-2.384L5.165,16.201
			l3.899,1.95l-3.899,1.95L15.201,25.118z M15.201,13.42l5.562,2.781l-1.663,0.832l-1.118,0.559l-1.117,0.559l-1.664,0.832
			l-1.664-0.832l-1.118-0.559l-1.118-0.559l-1.663-0.832L15.201,13.42z M15.201,21.219l3.899-1.95l1.663,0.832l-5.562,2.781
			l-5.563-2.781l1.663-0.832L15.201,21.219z"/>
	</g>
</g>
</svg>
