<?xml version="1.0" encoding="utf-8"?>

<!DOCTYPE svg PUBLIC "-//W3C//DTD SVG 1.1//EN" "http://www.w3.org/Graphics/SVG/1.1/DTD/svg11.dtd">
<svg version="1.1" id="Layer_1" xmlns="http://www.w3.org/2000/svg" xmlns:xlink="http://www.w3.org/1999/xlink" x="0px" y="0px"
	 width="30px" height="30px" viewBox="0 0 30 30" enable-background="new 0 0 30 30" xml:space="preserve">
<g>
	<g>
		<polygon fill="#FFFFFF" points="5.75,21.141 8.857,24.25 11.041,24.25 16.123,19.167 16.123,16.984 15.669,16.53 14.329,17.871 
			14.532,18.075 9.948,22.659 7.343,20.051 11.925,15.467 12.127,15.671 13.472,14.33 13.015,13.877 10.834,13.877 5.75,18.96 		"/>
		<polygon fill="#FFFFFF" points="19.164,16.137 24.248,11.054 24.248,8.873 21.141,5.763 18.957,5.763 13.874,10.847 
			13.874,13.028 14.329,13.483 15.669,12.142 15.466,11.938 20.05,7.354 22.655,9.963 18.073,14.546 17.87,14.343 16.527,15.681 
			16.982,16.137 		"/>
		
			<rect x="10.757" y="14.125" transform="matrix(0.7071 -0.7071 0.7071 0.7071 -6.2132 15)" fill="#FFFFFF" width="8.485" height="1.751"/>
	</g>
</g>
</svg>
