<?xml version="1.0" encoding="utf-8"?>

<!DOCTYPE svg PUBLIC "-//W3C//DTD SVG 1.1//EN" "http://www.w3.org/Graphics/SVG/1.1/DTD/svg11.dtd">
<svg version="1.1" id="Layer_1" xmlns="http://www.w3.org/2000/svg" xmlns:xlink="http://www.w3.org/1999/xlink" x="0px" y="0px"
	 width="30px" height="30px" viewBox="0 0 30 30" enable-background="new 0 0 30 30" xml:space="preserve">
<g>
	<g>
		<rect x="10" y="8" fill="#FFFFFF" width="15" height="2"/>
		<rect x="10" y="14" fill="#FFFFFF" width="15" height="2"/>
		<rect x="10" y="20" fill="#FFFFFF" width="15" height="2"/>
		<path fill="#FFFFFF" d="M5.833,8.252C5.94,8.156,6.03,8.064,6.103,7.977c-0.012,0.229-0.018,0.48-0.018,0.756V11H7.26V6.717H6.217
			L4.746,7.915l0.601,0.738L5.833,8.252z"/>
		<path fill="#FFFFFF" d="M6.561,14.541c-0.092,0.113-0.287,0.327-0.586,0.64l-1.046,1.058V17h3.108v-0.955h-1.62v-0.029
			c0.475-0.426,0.784-0.715,0.931-0.867c0.145-0.152,0.262-0.297,0.35-0.436c0.088-0.137,0.152-0.277,0.195-0.42
			c0.041-0.143,0.062-0.298,0.062-0.466c0-0.225-0.061-0.427-0.18-0.608c-0.121-0.18-0.289-0.319-0.508-0.417
			c-0.217-0.098-0.465-0.146-0.742-0.146c-0.221,0-0.42,0.022-0.596,0.067c-0.178,0.045-0.341,0.109-0.491,0.195
			c-0.15,0.084-0.336,0.226-0.557,0.423l0.636,0.744c0.174-0.15,0.33-0.264,0.467-0.341c0.139-0.077,0.274-0.116,0.409-0.116
			c0.131,0,0.232,0.032,0.305,0.097s0.108,0.152,0.108,0.264c0,0.09-0.018,0.176-0.055,0.258
			C6.717,14.328,6.652,14.426,6.561,14.541z"/>
		<path fill="#FFFFFF" d="M6.232,23.059c0.561,0,0.998-0.114,1.314-0.343c0.314-0.229,0.473-0.542,0.473-0.94
			c0-0.586-0.357-0.924-1.072-1.014v-0.018c0.307-0.086,0.541-0.225,0.703-0.414c0.162-0.191,0.243-0.419,0.243-0.685
			c0-0.309-0.126-0.551-0.378-0.727s-0.6-0.264-1.043-0.264c-0.307,0-0.578,0.033-0.816,0.1c-0.236,0.066-0.469,0.178-0.695,0.334
			l0.48,0.773c0.293-0.184,0.576-0.275,0.85-0.275c0.146,0,0.264,0.027,0.35,0.082c0.088,0.055,0.131,0.139,0.131,0.252
			c0,0.301-0.294,0.451-0.882,0.451H5.62v0.87h0.264c0.217,0,0.393,0.016,0.527,0.049c0.135,0.031,0.232,0.08,0.293,0.143
			c0.061,0.064,0.091,0.154,0.091,0.271c0,0.152-0.059,0.265-0.174,0.336c-0.117,0.071-0.302,0.106-0.556,0.106
			c-0.164,0-0.343-0.022-0.538-0.069c-0.193-0.045-0.385-0.116-0.572-0.212v0.961c0.229,0.088,0.441,0.148,0.637,0.182
			C5.789,23.042,6.002,23.059,6.232,23.059z"/>
	</g>
</g>
</svg>
