<?xml version="1.0" encoding="utf-8"?>

<!DOCTYPE svg PUBLIC "-//W3C//DTD SVG 1.1//EN" "http://www.w3.org/Graphics/SVG/1.1/DTD/svg11.dtd">
<svg version="1.1" id="Layer_1" xmlns="http://www.w3.org/2000/svg" xmlns:xlink="http://www.w3.org/1999/xlink" x="0px" y="0px"
	 width="30px" height="30px" viewBox="0 0 30 30" enable-background="new 0 0 30 30" xml:space="preserve">
<g>
	<path fill="none" d="M18,10.967c0-1.543-1.318-2.752-3-2.752s-3,1.209-3,2.752V13h6V10.967z"/>
	<polygon fill="none" points="10,15 9,15 9,17 21,17 21,15 20,15 18,15 12,15 	"/>
	<rect x="9" y="19" fill="none" width="12" height="3"/>
	<g>
		<path fill="#FFFFFF" d="M15,6.215c-2.804,0-5,2.087-5,4.752V13H7v11h16V13h-3v-2.033C20,8.303,17.804,6.215,15,6.215z M21,22H9v-3
			h12V22z M21,15v2H9v-2h1h2h6h2H21z M12,13v-2.033c0-1.543,1.318-2.752,3-2.752s3,1.209,3,2.752V13H12z"/>
	</g>
</g>
</svg>
