<?xml version="1.0" encoding="utf-8"?>

<!DOCTYPE svg PUBLIC "-//W3C//DTD SVG 1.1//EN" "http://www.w3.org/Graphics/SVG/1.1/DTD/svg11.dtd">
<svg version="1.1" id="Layer_1" xmlns="http://www.w3.org/2000/svg" xmlns:xlink="http://www.w3.org/1999/xlink" x="0px" y="0px"
	 width="30px" height="30px" viewBox="0 0 30 30" enable-background="new 0 0 30 30" xml:space="preserve">
<g>
	<path fill="none" d="M11.586,9H7v12h16V11h-9.414L11.586,9z M16,13v2h2v2h-2v2h-2v-2h-2v-2h2v-2H16z"/>
	<g>
		<polygon fill="#FFFFFF" points="12,17 14,17 14,19 16,19 16,17 18,17 18,15 16,15 16,13 14,13 14,15 12,15 		"/>
		<path fill="#FFFFFF" d="M12.414,7H5v16h20V9H14.415L12.414,7z M23,21H7V9h4.586l2,2H23V21z"/>
	</g>
</g>
</svg>
