<?xml version="1.0" encoding="utf-8"?>
<!-- Generator: Adobe Illustrator 16.0.0, SVG Export Plug-In . SVG Version: 6.00 Build 0)  -->
<!DOCTYPE svg PUBLIC "-//W3C//DTD SVG 1.1//EN" "http://www.w3.org/Graphics/SVG/1.1/DTD/svg11.dtd">
<svg version="1.1" id="Layer_1" xmlns="http://www.w3.org/2000/svg" xmlns:xlink="http://www.w3.org/1999/xlink" x="0px" y="0px"
	 width="30px" height="30px" viewBox="0 0 30 30" enable-background="new 0 0 30 30" xml:space="preserve">
<g>
	<path fill="none" d="M24,7H6v4h18V7z M9,10H7V8h2V10z M12,10h-2V8h2V10z M13,10V8h2v2H13z"/>
	<rect x="6" y="13" fill="none" width="18" height="10"/>
	<g>
		<rect x="13" y="8" fill="#FFFFFF" width="2" height="2"/>
		<rect x="10" y="8" fill="#FFFFFF" width="2" height="2"/>
		<rect x="7" y="8" fill="#FFFFFF" width="2" height="2"/>
		<path fill="#FFFFFF" d="M26,5H4v20h22V5z M6,7h18v4H6V7z M24,23H6V13h18V23z"/>
		<polygon fill="none" points="12,17 14,17 14,15 16,15 16,17 18,17 18,19 16,19 16,21 14,21 14,19 12,19 		"/>
		<polygon fill="#FFFFFF" points="14,21 16,21 16,19 18,19 18,17 16,17 16,15 14,15 14,17 12,17 12,19 14,19 		"/>
	</g>
</g>
</svg>
