<?xml version="1.0" encoding="utf-8"?>

<!DOCTYPE svg PUBLIC "-//W3C//DTD SVG 1.1//EN" "http://www.w3.org/Graphics/SVG/1.1/DTD/svg11.dtd">
<svg version="1.1" id="Layer_1" xmlns="http://www.w3.org/2000/svg" xmlns:xlink="http://www.w3.org/1999/xlink" x="0px" y="0px"
	 width="30px" height="30px" viewBox="0 0 30 30" enable-background="new 0 0 30 30" xml:space="preserve">
<g>
	<polygon fill="none" points="17.414,19 19,19 19,17.414 	"/>
	<polygon fill="none" points="12.586,11 11,11 11,12.586 	"/>
	<polygon fill="none" points="21,19 24,19 24,6 11,6 11,9 21,9 	"/>
	<polygon fill="none" points="9,11 6,11 6,24 19,24 19,21 9,21 	"/>
	<polygon fill="none" points="15.414,11 11,15.414 11,17.586 17.586,11 	"/>
	<polygon fill="none" points="19,12.414 12.414,19 14.586,19 19,14.586 	"/>
	<g>
		<path fill="#FFFFFF" d="M21,21h5V4H9v5H4v17h17V21z M11,15.414L15.414,11h2.172L11,17.586V15.414z M11,12.586V11h1.586L11,12.586z
			 M19,12.414v2.172L14.586,19h-2.172L19,12.414z M19,17.414V19h-1.586L19,17.414z M11,6h13v13h-3V9H11V6z M19,24H6V11h3v10h10V24z"
			/>
	</g>
</g>
</svg>
