<?xml version="1.0" encoding="utf-8"?>

<!DOCTYPE svg PUBLIC "-//W3C//DTD SVG 1.1//EN" "http://www.w3.org/Graphics/SVG/1.1/DTD/svg11.dtd">
<svg version="1.1" id="Layer_1" xmlns="http://www.w3.org/2000/svg" xmlns:xlink="http://www.w3.org/1999/xlink" x="0px" y="0px"
	 width="30px" height="30px" viewBox="0 0 30 30" enable-background="new 0 0 30 30" xml:space="preserve">
<g>
	<g>
		<rect x="13" y="6" fill="#FFFFFF" width="2" height="2"/>
		<rect x="6" y="12" fill="#FFFFFF" width="2" height="2"/>
		<rect x="10" y="6" fill="#FFFFFF" width="2" height="2"/>
		<rect x="15" y="22" fill="#FFFFFF" width="2" height="2"/>
		<rect x="12" y="22" fill="#FFFFFF" width="2" height="2"/>
		<polygon fill="#FFFFFF" points="6,8 7,8 9,8 9,6 6,6 		"/>
		<rect x="6" y="9" fill="#FFFFFF" width="2" height="2"/>
		<rect x="22" y="10" fill="#FFFFFF" width="2" height="2"/>
		<rect x="22" y="16" fill="#FFFFFF" width="2" height="2"/>
		<rect x="22" y="13" fill="#FFFFFF" width="2" height="2"/>
		<polygon fill="#FFFFFF" points="24,6 22,6 22,8 22,9 24,9 		"/>
		<polygon fill="#FFFFFF" points="21,22 21,24 23,24 24,24 24,22 22,22 		"/>
		<rect x="22" y="19" fill="#FFFFFF" width="2" height="2"/>
		<rect x="6" y="15" fill="#FFFFFF" width="2" height="2"/>
		<rect x="9" y="22" fill="#FFFFFF" width="2" height="2"/>
		<rect x="18" y="22" fill="#FFFFFF" width="2" height="2"/>
		<rect x="19" y="6" fill="#FFFFFF" width="2" height="2"/>
		<rect x="16" y="6" fill="#FFFFFF" width="2" height="2"/>
		<polygon fill="#FFFFFF" points="6,23 6,24 8,24 8,22 8,21 6,21 		"/>
		<rect x="6" y="18" fill="#FFFFFF" width="2" height="2"/>
	</g>
</g>
</svg>
