<?xml version="1.0" encoding="utf-8"?>

<!DOCTYPE svg PUBLIC "-//W3C//DTD SVG 1.1//EN" "http://www.w3.org/Graphics/SVG/1.1/DTD/svg11.dtd">
<svg version="1.1" id="Layer_1" xmlns="http://www.w3.org/2000/svg" xmlns:xlink="http://www.w3.org/1999/xlink" x="0px" y="0px"
	 width="30px" height="30px" viewBox="0 0 30 30" enable-background="new 0 0 30 30" xml:space="preserve">
<g>
	<polygon fill="none" points="12,9 7,9 5,11 5,21 12,21 12,19 12,18 	"/>
	<polygon fill="none" points="14,14.707 14,15.293 14.293,15 	"/>
	<polygon fill="none" points="19.243,10.05 22.071,10.05 23.485,11.464 23.485,14.292 22.778,15 23.485,15.708 23.485,18.536 
		22.071,19.95 19.243,19.95 18.536,19.243 18,19.778 18,21 25,21 25,9 20,9 18.389,10.611 18.536,10.757 	"/>
	<g>
		<polygon fill="#FFFFFF" points="16,10 16,10.05 17.828,10.05 18.389,10.611 20,9 25,9 25,21 18,21 18,19.778 17.828,19.95 
			16,19.95 16,23 27,23 27,7 19,7 		"/>
		<polygon fill="#FFFFFF" points="20.657,11.464 18.536,13.586 18,13.05 16.95,12 16.414,11.464 16,11.878 15,12.878 16,13.878 
			17.122,15 16,16.122 15,17.122 16,18.122 16.414,18.536 18,16.95 18.536,16.414 20.657,18.536 22.071,17.122 19.95,15 
			22.071,12.878 		"/>
		<path fill="#FFFFFF" d="M14,19v-0.05V18v-2.707v-0.586V11.05V7H6l-3,3v13h11V19z M12,21H5V11l2-2h5v9v1V21z"/>
	</g>
</g>
</svg>
