<?xml version="1.0" encoding="utf-8"?>

<!DOCTYPE svg PUBLIC "-//W3C//DTD SVG 1.1//EN" "http://www.w3.org/Graphics/SVG/1.1/DTD/svg11.dtd">
<svg version="1.1" id="Layer_1" xmlns="http://www.w3.org/2000/svg" xmlns:xlink="http://www.w3.org/1999/xlink" x="0px" y="0px"
	 width="30px" height="30px" viewBox="0 0 30 30" enable-background="new 0 0 30 30" xml:space="preserve">
<g>
	<polygon fill="none" points="13,6.709 13,7 17,7 17,6.709 15,6.06 	"/>
	<polygon fill="none" points="22,11 21,11 19.945,12 10.816,12 10,12 9,11 8,11 8,20 11,20 13,20 13,19 14,19 14,16 16,16 16,19 
		19,19 19,20 22,20 	"/>
	<g>
		<path fill="#FFFFFF" d="M19,5.396l-4-1.438l-4,1.438V9h8V5.396z M17,7h-4V6.709l2-0.65l2,0.65V7z"/>
		<polygon fill="#FFFFFF" points="11,22 11,21 11,20 8,20 8,11 9,11 10,12 10.816,12 19.945,12 21,11 22,11 22,20 19,20 19,21 
			19,22 24,22 24,21 24,8 21.25,8 20,8 20,10 10,10 10,8 7,8 6,8 6,21 6,22 7,22 		"/>
		<polygon fill="#FFFFFF" points="16,16 14,16 14,19 14,23 12,23 15,27.002 18,23 16,23 16,19 		"/>
	</g>
</g>
</svg>
