<?xml version="1.0" encoding="utf-8"?>

<!DOCTYPE svg PUBLIC "-//W3C//DTD SVG 1.1//EN" "http://www.w3.org/Graphics/SVG/1.1/DTD/svg11.dtd">
<svg version="1.1" id="Layer_1" xmlns="http://www.w3.org/2000/svg" xmlns:xlink="http://www.w3.org/1999/xlink" x="0px" y="0px"
	 width="30px" height="30px" viewBox="0 0 30 30" enable-background="new 0 0 30 30" xml:space="preserve">
<g>
	<path fill="none" d="M20.625,15.579l-0.103,0.125l-2.349-1.938l2.388,2.984L19,20h-1v1.411c2.363-0.96,4.16-3.017,4.769-5.536
		h-2.144V15.579z"/>
	<path fill="none" d="M7.213,15.805l0.171,0.32l1.623-0.422L7.01,13.801C7.009,13.868,7,13.933,7,14
		C7,14.622,7.078,15.224,7.213,15.805z"/>
	<path fill="none" d="M11,20l-1.396-2.903l-1.761,0.458c0.868,1.739,2.346,3.12,4.156,3.856V20H11z"/>
	<path fill="none" d="M15.629,8.807l-0.223,0.5l2.096,1.885l-0.038,0.042l3.806,3.14h1.712c0.005-0.107,0.015-0.212,0.016-0.32
		l-0.752-3.425c-0.077-0.165-0.153-0.33-0.241-0.489l-2.195-2.52c-0.373-0.282-0.77-0.533-1.189-0.747h-1.059L15.629,8.807z"/>
	<path fill="none" d="M11.19,9.87l-2.991,2.992l2.469,2.352l2.771-3.463h2.292l-0.208-0.172l0.07-0.085l-2.001-1.8l0.779-1.75
		l1.842-1.841C15.816,6.041,15.413,6,15,6c-1.184,0-2.305,0.265-3.316,0.729l0.062,0.373L11.19,9.87z"/>
	<path fill="none" d="M10.098,7.691c-1.255,0.978-2.213,2.315-2.712,3.862L9.81,9.13L10.098,7.691z"/>
	<g>
		<path fill="#FFFFFF" d="M12,23.539v-2.127c-1.811-0.736-3.288-2.117-4.156-3.856l1.761-0.458L9.438,16.75l1.229-1.537
			l-2.469-2.352L11.19,9.87l0.556-2.769l-0.062-0.373C12.695,6.265,13.816,6,15,6c0.413,0,0.816,0.041,1.213,0.102l-1.842,1.841
			l-0.779,1.75l2.001,1.8l-0.07,0.085l0.208,0.172l2.443,2.016l2.349,1.938l0.103-0.125v0.296h2.144
			c-0.608,2.519-2.405,4.576-4.769,5.536v2.127c3.471-1.094,6.126-4.034,6.817-7.664h0.115l-0.067-0.309
			C24.946,15.055,25,14.534,25,14c0-5.514-4.486-10-10-10S5,8.486,5,14C5,18.469,7.947,22.261,12,23.539z M21.27,14.375l-3.806-3.14
			l0.038-0.042l-2.096-1.885l0.223-0.5l1.932-1.932h1.059c0.42,0.214,0.816,0.465,1.189,0.747l2.195,2.52
			c0.088,0.159,0.164,0.324,0.241,0.489l0.752,3.425c-0.001,0.108-0.011,0.213-0.016,0.32H21.27z M9.007,15.703l-1.623,0.422
			l-0.171-0.32C7.078,15.224,7,14.622,7,14c0-0.067,0.009-0.132,0.01-0.199L9.007,15.703z M10.098,7.691L9.81,9.13l-2.424,2.423
			C7.885,10.007,8.843,8.669,10.098,7.691z"/>
		<polygon fill="#FFFFFF" points="14,23.949 14,26 16,26 16,23.949 16,21.931 16,18 19,18 15,13 11,18 14,18 14,21.931 		"/>
	</g>
</g>
</svg>
