<?xml version="1.0" encoding="utf-8"?>

<!DOCTYPE svg PUBLIC "-//W3C//DTD SVG 1.1//EN" "http://www.w3.org/Graphics/SVG/1.1/DTD/svg11.dtd">
<svg version="1.1" id="Layer_1" xmlns="http://www.w3.org/2000/svg" xmlns:xlink="http://www.w3.org/1999/xlink" x="0px" y="0px"
	 width="30px" height="30px" viewBox="0 0 30 30" enable-background="new 0 0 30 30" xml:space="preserve">
<g>
	<polygon fill="none" points="15,19.263 13.374,20.854 13.224,21 16.776,21 16.626,20.854 	"/>
	<polygon fill="none" points="19.439,9.163 20.907,10.631 22.336,12.061 20.891,13.475 19.331,15 20.891,16.526 22.336,17.94 
		20.906,19.37 19.438,20.838 19.276,21 23,21 23,9 19.276,9 	"/>
	<polygon fill="none" points="15,10.737 16.626,9.146 16.776,9 13.224,9 13.374,9.146 	"/>
	<polygon fill="none" points="9.094,19.37 7.664,17.94 9.109,16.526 10.669,15 9.109,13.475 7.664,12.061 9.093,10.631 
		10.561,9.163 10.724,9 7,9 7,21 10.724,21 10.562,20.838 	"/>
	<g>
		<polygon fill="#FFFFFF" points="18.024,10.576 15,13.534 11.976,10.576 10.508,12.045 13.529,15 10.508,17.956 11.976,19.424 
			15,16.466 18.024,19.424 19.492,17.956 16.471,15 19.492,12.045 		"/>
		<path fill="#FFFFFF" d="M25,7H5v16h20V7z M23,21h-3.724h-2.5h-3.552h-2.5H7V9h3.724h2.5h3.552h2.5H23V21z"/>
	</g>
</g>
</svg>
