<?xml version="1.0" encoding="utf-8"?>
<!-- Generator: Adobe Illustrator 15.0.0, SVG Export Plug-In . SVG Version: 6.00 Build 0)  -->
<!DOCTYPE svg PUBLIC "-//W3C//DTD SVG 1.1//EN" "http://www.w3.org/Graphics/SVG/1.1/DTD/svg11.dtd">
<svg version="1.1" id="Layer_1" xmlns="http://www.w3.org/2000/svg" xmlns:xlink="http://www.w3.org/1999/xlink" x="0px" y="0px"
	 width="22px" height="22px" viewBox="0 0 22 22" enable-background="new 0 0 22 22" xml:space="preserve">
<g>
	<path fill="none" d="M14.5,11.5c0.146,0,0.317,0,0.5,0v-4c-0.167,0-0.333,0-0.5,0c0.167,0,0.333,0,0.5,0V5h-2.5
		c0,0.167,0,0.333,0,0.5c0-0.167,0-0.333,0-0.5h-2c0,0.167,0,0.333,0,0.5c0-0.167,0-0.333,0-0.5H9.414L7,7.414V17h8v-5.5
		C14.817,11.5,14.646,11.5,14.5,11.5z"/>
	<g>
		<path fill="#FFFFFF" d="M15,9.25V17H7V7.414L9.414,5H10.5c0-0.667,0-1.333,0-2H8.586L5,6.586V19h12V9.25
			C16.312,9.25,15.582,9.25,15,9.25z"/>
		<path fill="#FFFFFF" d="M17,3h-4.5c0,0.667,0,1.333,0,2H15v2.5c0.667,0,1.333,0,2,0V3z"/>
	</g>
</g>
<line fill="none" stroke="#FFFFFF" stroke-width="2" stroke-miterlimit="10" x1="15.459" y1="4.25" x2="8.875" y2="10.834"/>
</svg>
