<?xml version="1.0" encoding="utf-8"?>

<!DOCTYPE svg PUBLIC "-//W3C//DTD SVG 1.1//EN" "http://www.w3.org/Graphics/SVG/1.1/DTD/svg11.dtd">
<svg version="1.1" id="Layer_1" xmlns="http://www.w3.org/2000/svg" xmlns:xlink="http://www.w3.org/1999/xlink" x="0px" y="0px"
	 width="30px" height="30px" viewBox="0 0 30 30" enable-background="new 0 0 30 30" xml:space="preserve">
<g>
	<path fill="none" d="M18.326,21c-0.437-2.29-1.571-4.379-3.309-5.999c-0.038-0.036-0.08-0.065-0.119-0.1L10.009,21H18.326z"/>
	<g>
		<path fill="#FFFFFF" d="M9.032,12.147c1.094,0.153,2.151,0.467,3.144,0.935l1.279-1.595c-1.247-0.645-2.586-1.086-3.979-1.3
			L10,7.861l-4.786,2.146L8.613,14L9.032,12.147z"/>
		<path fill="#FFFFFF" d="M18.22,7.559l-2.399,2.993l-1.263,1.576l-1.252,1.562l-1.682,2.099l-4.477,5.585L8,22.06V23h17v-2h-4.643
			c-0.458-2.853-1.829-5.46-3.977-7.462c-0.075-0.07-0.156-0.128-0.232-0.196L19.78,8.81L18.22,7.559z M15.017,15.001
			c1.738,1.62,2.872,3.709,3.309,5.999h-8.317l4.889-6.099C14.937,14.936,14.979,14.965,15.017,15.001z"/>
	</g>
</g>
</svg>
