<?xml version="1.0" encoding="UTF-8" standalone="no"?>
<svg
   xmlns:dc="http://purl.org/dc/elements/1.1/"
   xmlns:cc="http://creativecommons.org/ns#"
   xmlns:rdf="http://www.w3.org/1999/02/22-rdf-syntax-ns#"
   xmlns:svg="http://www.w3.org/2000/svg"
   xmlns="http://www.w3.org/2000/svg"
   xmlns:sodipodi="http://sodipodi.sourceforge.net/DTD/sodipodi-0.dtd"
   xmlns:inkscape="http://www.inkscape.org/namespaces/inkscape"
   version="1.1"
   id="Layer_1"
   x="0px"
   y="0px"
   width="30px"
   height="30px"
   viewBox="0 0 30 30"
   enable-background="new 0 0 30 30"
   xml:space="preserve"
   inkscape:version="0.48.5 r10040"
   sodipodi:docname="saveLocal.svg"><metadata
     id="metadata21"><rdf:RDF><cc:Work
         rdf:about=""><dc:format>image/svg+xml</dc:format><dc:type
           rdf:resource="http://purl.org/dc/dcmitype/StillImage" /></cc:Work></rdf:RDF></metadata><defs
     id="defs19" /><sodipodi:namedview
     pagecolor="#ffffff"
     bordercolor="#666666"
     borderopacity="1"
     objecttolerance="10"
     gridtolerance="10"
     guidetolerance="10"
     inkscape:pageopacity="0"
     inkscape:pageshadow="2"
     inkscape:window-width="861"
     inkscape:window-height="692"
     id="namedview17"
     showgrid="false"
     inkscape:zoom="7.8666667"
     inkscape:cx="15"
     inkscape:cy="15"
     inkscape:window-x="0"
     inkscape:window-y="0"
     inkscape:window-maximized="0"
     inkscape:current-layer="Layer_1" /><rect
     style="fill:none"
     id="rect5"
     height="2"
     width="6"
     y="17"
     x="10" /><path
     style="fill:none"
     inkscape:connector-curvature="0"
     id="path7"
     d="m 7,7 v 12 h 1 v -4 h 10 v 4 h 1 V 9.362 L 16.639,7 H 7 z m 9,5 H 9 V 8.333 h 2 V 10 h 3 V 8.333 h 2 V 12 z" /><path
     d="M 21,8.534 17.467,5 H 5 V 21 H 21 V 8.534 z M 16,19 h -6 v -2 h 6 v 2 z m 3,0 H 18 V 15 H 8 v 4 H 7 V 7 h 9.639 L 19,9.362 V 19 z"
     id="path13"
     inkscape:connector-curvature="0"
     style="fill:#ffffff" /><polygon
     points="9,12 16,12 16,8.333 14,8.333 14,10 11,10 11,8.333 9,8.333 "
     id="polygon15"
     style="fill:#ffffff" /><rect
     y="18.813559"
     x="23.423729"
     height="4.9576273"
     width="1.3983051"
     id="rect3015"
     style="fill:#ffffff" /><rect
     y="23.516949"
     x="20.720339"
     height="1.5254238"
     width="6.6101694"
     id="rect3021"
     style="fill:#ffffff" /></svg>