<?xml version="1.0" encoding="utf-8"?>

<!DOCTYPE svg PUBLIC "-//W3C//DTD SVG 1.1//EN" "http://www.w3.org/Graphics/SVG/1.1/DTD/svg11.dtd">
<svg version="1.1" id="Layer_1" xmlns="http://www.w3.org/2000/svg" xmlns:xlink="http://www.w3.org/1999/xlink" x="0px" y="0px"
	 width="30px" height="30px" viewBox="0 0 30 30" enable-background="new 0 0 30 30" xml:space="preserve">
<g>
	<rect x="10" y="17" fill="none" width="6" height="2"/>
	<path fill="none" d="M7,7v12h1v-4h10v4h1V9.362L16.639,7H7z M16,12H9V8.333h2V10h3V8.333h2V12z"/>
	<g>
		<polygon fill="#FFFFFF" points="24.875,21 23.125,21 23.125,23.125 21,23.125 21,24.875 23.125,24.875 23.125,27 24.875,27 
			24.875,24.875 27,24.875 27,23.125 24.875,23.125 		"/>
		<path fill="#FFFFFF" d="M21,8.534L17.467,5H5v16h16V8.534z M16,19h-6v-2h6V19z M19,19h-1v-4H8v4H7V7h9.639L19,9.362V19z"/>
		<polygon fill="#FFFFFF" points="14,10 11,10 11,8.333 9,8.333 9,12 16,12 16,8.333 14,8.333 		"/>
	</g>
</g>
</svg>
