<?xml version="1.0" encoding="utf-8"?>

<!DOCTYPE svg PUBLIC "-//W3C//DTD SVG 1.1//EN" "http://www.w3.org/Graphics/SVG/1.1/DTD/svg11.dtd">
<svg version="1.1" id="Layer_1" xmlns="http://www.w3.org/2000/svg" xmlns:xlink="http://www.w3.org/1999/xlink" x="0px" y="0px"
	 width="30px" height="30px" viewBox="0 0 30 30" enable-background="new 0 0 30 30" xml:space="preserve">
<g>
	<path fill="none" d="M9,8v13h2v-4h9v4h2V10.572L19.428,8H9z M19,13h-7V9.5h2V11h3V9.5h2V13z"/>
	<rect x="13" y="19" fill="none" width="5" height="2"/>
	<g>
		<path fill="#FFFFFF" d="M24,9.744L20.256,6H7v17h17V9.744z M18,21h-5v-2h5V21z M22,21h-2v-4h-9v4H9V8h10.428L22,10.572V21z"/>
		<polygon fill="#FFFFFF" points="17,11 14,11 14,9.5 12,9.5 12,13 19,13 19,9.5 17,9.5 		"/>
	</g>
</g>
</svg>
