<?xml version="1.0" encoding="utf-8"?>

<!DOCTYPE svg PUBLIC "-//W3C//DTD SVG 1.1//EN" "http://www.w3.org/Graphics/SVG/1.1/DTD/svg11.dtd">
<svg version="1.1" id="Layer_1" xmlns="http://www.w3.org/2000/svg" xmlns:xlink="http://www.w3.org/1999/xlink" x="0px" y="0px"
	 width="30px" height="30px" viewBox="0 0 30 30" enable-background="new 0 0 30 30" xml:space="preserve">
<g>
	<rect x="10" y="17" fill="none" width="6" height="2"/>
	<path fill="none" d="M8,15h10v4h1V9.362L16.639,7H7v12h1V15z M9,8.333h2V10h3V8.333h2V12H9V8.333z"/>
	<g>
		<path fill="#FFFFFF" d="M26,22h-4l1.5,1.5L23,24c-1.602,1.197-3.953,0.4-5.223-1.167l-1.555,1.259
			c1.135,1.4,2.797,2.127,4.474,2.127c1.271,0,2.551-0.418,3.613-1.278l0.268-0.364L26,26V22z"/>
		<path fill="#FFFFFF" d="M5,21h16V8.534L17.467,5H5V21z M16,19h-6v-2h6V19z M7,7h9.639L19,9.362V19h-1v-4H8v4H7V7z"/>
		<polygon fill="#FFFFFF" points="16,8.333 14,8.333 14,10 11,10 11,8.333 9,8.333 9,12 16,12 		"/>
	</g>
</g>
</svg>
