<?xml version="1.0" encoding="utf-8"?>

<!DOCTYPE svg PUBLIC "-//W3C//DTD SVG 1.1//EN" "http://www.w3.org/Graphics/SVG/1.1/DTD/svg11.dtd">
<svg version="1.1" id="Layer_1" xmlns="http://www.w3.org/2000/svg" xmlns:xlink="http://www.w3.org/1999/xlink" x="0px" y="0px"
	 width="30px" height="30px" viewBox="0 0 30 30" enable-background="new 0 0 30 30" xml:space="preserve">
<g>
	<rect x="10" y="16" fill="none" width="4" height="4"/>
	<rect x="16" y="16" fill="none" width="4" height="4"/>
	<rect x="16" y="10" fill="none" width="4" height="4"/>
	<rect x="10" y="10" fill="none" width="4" height="4"/>
	<g>
		<path fill="#FFFFFF" d="M25,10V8h-3V5h-2v3h-4V5h-2v3h-4V5H8v3H5v2h3v4H5v2h3v4H5v2h3v3h2v-3h4v3h2v-3h4v3h2v-3h3v-2h-3v-4h3v-2
			h-3v-4H25z M10,10h4v4h-4V10z M10,20v-4h4v4H10z M20,20h-4v-4h4V20z M20,14h-4v-4h4V14z"/>
	</g>
</g>
</svg>
