<?xml version="1.0" encoding="utf-8"?>
<!-- Generator: Adobe Illustrator 15.0.0, SVG Export Plug-In . SVG Version: 6.00 Build 0)  -->
<!DOCTYPE svg PUBLIC "-//W3C//DTD SVG 1.1//EN" "http://www.w3.org/Graphics/SVG/1.1/DTD/svg11.dtd">
<svg version="1.1" id="Layer_1" xmlns="http://www.w3.org/2000/svg" xmlns:xlink="http://www.w3.org/1999/xlink" x="0px" y="0px"
	 width="30px" height="30px" viewBox="0 0 30 30" enable-background="new 0 0 30 30" xml:space="preserve">
<g>
	<g>
		<rect x="23.012" y="21" fill="#FFFFFF" width="2.002" height="2.001"/>
		<rect x="17.008" y="21" fill="#FFFFFF" width="2.001" height="2"/>
		<rect x="20.01" y="21" fill="#FFFFFF" width="2.002" height="2"/>
		<rect x="11.003" y="21" fill="#FFFFFF" width="2.001" height="2"/>
		<rect x="14.005" y="21" fill="#FFFFFF" width="2.001" height="2"/>
		<rect x="8" y="21" fill="#FFFFFF" width="2.001" height="2"/>
		<rect x="5" y="21" fill="#FFFFFF" width="2" height="2"/>
		<rect x="5" y="9.012" fill="#FFFFFF" width="2" height="1.998"/>
		<rect x="5" y="12.009" fill="#FFFFFF" width="2" height="1.998"/>
		<rect x="5" y="18.003" fill="#FFFFFF" width="2" height="1.998"/>
		<rect x="5" y="15.006" fill="#FFFFFF" width="2" height="1.998"/>
		<polygon fill="#FFFFFF" points="7,8.013 7,6.013 5,6.014 5,8.013 		"/>
		<rect x="14" y="6.007" fill="#FFFFFF" width="2" height="2"/>
		<rect x="8" y="6.011" fill="#FFFFFF" width="2" height="2"/>
		<rect x="11" y="6.009" fill="#FFFFFF" width="2" height="2"/>
		<rect x="17" y="6.005" fill="#FFFFFF" width="2" height="2"/>
		<rect x="20" y="6.003" fill="#FFFFFF" width="2" height="2"/>
		<rect x="23" y="6" fill="#FFFFFF" width="2" height="2"/>
		<rect x="23.002" y="9" fill="#FFFFFF" width="2" height="2"/>
		<rect x="23.005" y="12" fill="#FFFFFF" width="2" height="2"/>
		<rect x="23.007" y="15" fill="#FFFFFF" width="2" height="2"/>
		<rect x="23.01" y="18" fill="#FFFFFF" width="2" height="2"/>
		<path fill="#FFFFFF" d="M9,16h6v-6H9V16z M11,12h2v2h-2V12z"/>
		<path fill="#FFFFFF" d="M16,19h5v-9h-5V19z M18,12h1v5h-1V12z"/>
	</g>
</g>
</svg>
