<?xml version="1.0" encoding="utf-8"?>

<!DOCTYPE svg PUBLIC "-//W3C//DTD SVG 1.1//EN" "http://www.w3.org/Graphics/SVG/1.1/DTD/svg11.dtd">
<svg version="1.1" id="Layer_1" xmlns="http://www.w3.org/2000/svg" xmlns:xlink="http://www.w3.org/1999/xlink" x="0px" y="0px"
	 width="30px" height="30px" viewBox="0 0 30 30" enable-background="new 0 0 30 30" xml:space="preserve">
<g>
	<g>
		<polygon fill="#FFFFFF" points="18.024,10.076 15,13.034 11.976,10.076 10.508,11.545 13.529,14.5 10.508,17.456 11.976,18.924 
			15,15.966 18.024,18.924 19.492,17.456 16.471,14.5 19.492,11.545 		"/>
		<rect x="23.012" y="20.999" fill="#FFFFFF" width="2.001" height="2.001"/>
		<rect x="20.01" y="21" fill="#FFFFFF" width="2.001" height="2"/>
		<polygon fill="#FFFFFF" points="17.008,21 17.008,23 19.009,23 19.009,21 18.776,21 17.287,21 		"/>
		<polygon fill="#FFFFFF" points="11.003,21 11.003,23 13.004,23 13.004,21 12.713,21 11.224,21 		"/>
		<rect x="8" y="21" fill="#FFFFFF" width="2.001" height="2"/>
		<rect x="14.005" y="21" fill="#FFFFFF" width="2.001" height="2"/>
		<rect x="5" y="21" fill="#FFFFFF" width="2" height="2"/>
		<rect x="5" y="15.006" fill="#FFFFFF" width="2" height="1.998"/>
		<rect x="5" y="9.012" fill="#FFFFFF" width="2" height="1.998"/>
		<rect x="5" y="12.009" fill="#FFFFFF" width="2" height="1.998"/>
		<rect x="5" y="18.003" fill="#FFFFFF" width="2" height="1.998"/>
		<polygon fill="#FFFFFF" points="7,8.013 7,6.013 5,6.014 5,8.013 7,8.013 		"/>
		<rect x="20" y="6.002" fill="#FFFFFF" width="2" height="2"/>
		<rect x="14" y="6.006" fill="#FFFFFF" width="2" height="2"/>
		<rect x="8" y="6.011" fill="#FFFFFF" width="2" height="2"/>
		<polygon fill="#FFFFFF" points="18.781,8.004 19,8.004 19,6.004 17,6.005 17,8.005 17.282,8.005 		"/>
		<polygon fill="#FFFFFF" points="12.722,8.008 13,8.008 13,6.008 11,6.01 11,8.01 11.213,8.01 		"/>
		<rect x="23" y="6" fill="#FFFFFF" width="2" height="2"/>
		<rect x="23.01" y="18" fill="#FFFFFF" width="2" height="2"/>
		<rect x="23.007" y="15" fill="#FFFFFF" width="2" height="2"/>
		<rect x="23.005" y="12" fill="#FFFFFF" width="2" height="2"/>
		<rect x="23.002" y="9" fill="#FFFFFF" width="2" height="2"/>
	</g>
</g>
</svg>
