<?xml version="1.0" encoding="utf-8"?>

<!DOCTYPE svg PUBLIC "-//W3C//DTD SVG 1.1//EN" "http://www.w3.org/Graphics/SVG/1.1/DTD/svg11.dtd">
<svg version="1.1" id="Layer_1" xmlns="http://www.w3.org/2000/svg" xmlns:xlink="http://www.w3.org/1999/xlink" x="0px" y="0px"
	 width="30px" height="30px" viewBox="0 0 30 30" enable-background="new 0 0 30 30" xml:space="preserve">
<g>
	<g>
		<polygon fill="#FFFFFF" points="15.074,16.438 14.381,18.059 14.621,18.161 12.331,23.511 9.308,22.215 11.598,16.867 
			11.837,16.97 12.529,15.348 11.965,15.106 10.114,15.849 7.547,21.847 8.289,23.697 11.963,25.271 13.814,24.53 16.382,18.53 
			15.64,16.679 		"/>
		<polygon fill="#FFFFFF" points="22.822,8.447 16.469,9.933 15.417,11.626 15.555,12.225 17.274,11.824 17.215,11.57 
			22.881,10.245 23.628,13.448 17.965,14.773 17.905,14.519 16.185,14.921 16.327,15.52 18.021,16.572 24.375,15.085 25.426,13.393 
			24.517,9.5 		"/>
		
			<rect x="5.963" y="11.911" transform="matrix(0.9806 0.1962 -0.1962 0.9806 2.6698 -1.3742)" fill="#FFFFFF" width="4.613" height="1.75"/>
		
			<rect x="4.883" y="7.839" transform="matrix(-0.7071 -0.7071 0.7071 -0.7071 8.7277 21.0438)" fill="#FFFFFF" width="7.677" height="1.751"/>
		
			<rect x="10.487" y="7.386" transform="matrix(0.196 0.9806 -0.9806 0.196 18.3873 -5.9036)" fill="#FFFFFF" width="4.613" height="1.751"/>
	</g>
</g>
</svg>
