<?xml version="1.0" encoding="utf-8"?>

<!DOCTYPE svg PUBLIC "-//W3C//DTD SVG 1.1//EN" "http://www.w3.org/Graphics/SVG/1.1/DTD/svg11.dtd">
<svg version="1.1" id="Layer_1" xmlns="http://www.w3.org/2000/svg" xmlns:xlink="http://www.w3.org/1999/xlink" x="0px" y="0px"
	 width="30px" height="30px" viewBox="0 0 30 30" enable-background="new 0 0 30 30" xml:space="preserve">
<g>
	<path fill="none" d="M7.846,17.559c0.216,0.431,0.469,0.839,0.756,1.222l-0.009-1.417L7.846,17.559z"/>
	<path fill="none" d="M10.117,7.677c-1.271,0.984-2.242,2.337-2.74,3.903l2.449-2.45L10.117,7.677z"/>
	<path fill="none" d="M11.207,9.87l-2.991,2.992l1.8,1.714l0.203-0.203l2.813-0.016L15,16.281l1.968-1.925l2.359,0.014l-2.822-2.07
		l-0.007,0.007l-0.074-0.066l-0.867-0.636l0.063-0.087l-2.028-1.825l0.779-1.75l1.842-1.841C15.816,6.041,15.413,6,15,6
		c-1.178,0-2.293,0.262-3.301,0.721l0.063,0.38L11.207,9.87z"/>
	<path fill="none" d="M21.415,16.007l-0.017,2.774c0.641-0.854,1.112-1.837,1.37-2.906h-1.485L21.415,16.007z"/>
	<path fill="none" d="M7.011,13.786C7.009,13.858,7,13.928,7,14c0,0.6,0.072,1.183,0.197,1.745l0.203,0.38l1.442-0.375l0.112-0.113
		L7.011,13.786z"/>
	<path fill="none" d="M15.629,8.807l-0.223,0.5l1.969,1.771l4.496,3.296h1.11c0.005-0.107,0.015-0.212,0.016-0.32l-0.752-3.425
		c-0.077-0.165-0.153-0.33-0.241-0.489l-2.195-2.52c-0.373-0.282-0.77-0.533-1.189-0.747h-1.059L15.629,8.807z"/>
	<path fill="none" d="M10.068,20.287l-1.274-1.248C9.171,19.502,9.6,19.918,10.068,20.287z"/>
	<path fill="none" d="M21.206,19.039l-1.274,1.248C20.4,19.918,20.829,19.502,21.206,19.039z"/>
	<g>
		<path fill="#FFFFFF" d="M9.115,22.067l1.387-1.357l-0.434-0.424c-0.469-0.369-0.897-0.785-1.274-1.248l-0.192-0.188v-0.069
			c-0.287-0.383-0.54-0.791-0.756-1.222l0.747-0.194l-0.008-1.357l0.258-0.257L7.4,16.125l-0.203-0.38C7.072,15.183,7,14.6,7,14
			c0-0.072,0.009-0.142,0.011-0.214l1.944,1.851l1.061-1.062l-1.8-1.714l2.991-2.992l0.556-2.769l-0.063-0.38
			C12.707,6.262,13.822,6,15,6c0.413,0,0.816,0.041,1.213,0.102l-1.842,1.841l-0.779,1.75l2.028,1.825l-0.063,0.087l0.867,0.636
			l0.074,0.066l0.007-0.007l2.822,2.07l0.608,0.446l1.082,0.793l0.266,0.265h1.485c-0.258,1.069-0.729,2.052-1.37,2.906v0.069
			l-0.192,0.188c-0.377,0.463-0.806,0.879-1.274,1.248l-0.434,0.424l1.387,1.357c2.007-1.468,3.45-3.659,3.933-6.192h0.115
			l-0.067-0.309C24.946,15.055,25,14.534,25,14c0-5.514-4.486-10-10-10S5,8.486,5,14C5,17.313,6.627,20.247,9.115,22.067z
			 M21.871,14.375l-4.496-3.296l-1.969-1.771l0.223-0.5l1.932-1.932h1.059c0.42,0.214,0.816,0.465,1.189,0.747l2.195,2.52
			c0.088,0.159,0.164,0.324,0.241,0.489l0.752,3.425c-0.001,0.108-0.011,0.213-0.016,0.32H21.871z M10.117,7.677L9.826,9.13
			l-2.449,2.45C7.875,10.014,8.846,8.661,10.117,7.677z"/>
		<polygon fill="#FFFFFF" points="10.906,23.114 10,24 11.634,25.634 13.441,23.866 15,22.342 16.559,23.866 18.366,25.634 20,24 
			19.094,23.114 17.589,21.642 17.53,21.583 16.638,20.71 20,17.421 18.983,16.404 18.366,15.786 15,19.079 11.634,15.786 
			11.465,15.956 10.57,16.85 10,17.421 13.362,20.71 12.47,21.583 		"/>
	</g>
</g>
</svg>
