<?xml version="1.0" encoding="utf-8"?>

<!DOCTYPE svg PUBLIC "-//W3C//DTD SVG 1.1//EN" "http://www.w3.org/Graphics/SVG/1.1/DTD/svg11.dtd">
<svg version="1.1" id="Layer_1" xmlns="http://www.w3.org/2000/svg" xmlns:xlink="http://www.w3.org/1999/xlink" x="0px" y="0px"
	 width="30px" height="30px" viewBox="0 0 30 30" enable-background="new 0 0 30 30" xml:space="preserve">
<g>
	<polygon fill="none" points="21.415,13.628 21,14.043 21,20 19,20 19,15.267 18,15.272 18,20 16,20 16,14.332 15,13.354 
		13.078,15.234 14,15.966 9,19.929 9,14.043 8.585,13.628 8.602,10.784 9.403,10 7,10 7,22 23,22 23,10 20.597,10 21.398,10.784 	
		"/>
	<g>
		<polygon fill="#FFFFFF" points="10.219,15.263 9,14.043 9,19.929 14,15.966 13.078,15.234 13.032,15.278 		"/>
		<polygon fill="#FFFFFF" points="19.498,8.925 20.597,10 23,10 23,22 7,22 7,10 9.403,10 10.502,8.925 9.557,8 5,8 5,24 25,24 
			25,8 20.443,8 		"/>
		<polygon fill="#FFFFFF" points="16,20 18,20 18,15.272 16.968,15.278 16,14.332 		"/>
		<polygon fill="#FFFFFF" points="19,20 21,20 21,14.043 19.781,15.263 19,15.267 		"/>
		<polygon fill="#FFFFFF" points="20,5.635 18.366,4 15,7.293 11.634,4 10,5.635 12.417,8 13.362,8.925 12.263,10 10,12.214 
			11.634,13.849 15,10.556 16.477,12 18,13.49 18.366,13.849 19,13.215 20,12.214 19.781,12 17.737,10 16.638,8.925 17.583,8 		"/>
	</g>
</g>
</svg>
