<?xml version="1.0" encoding="utf-8"?>

<!DOCTYPE svg PUBLIC "-//W3C//DTD SVG 1.1//EN" "http://www.w3.org/Graphics/SVG/1.1/DTD/svg11.dtd">
<svg version="1.1" id="Layer_1" xmlns="http://www.w3.org/2000/svg" xmlns:xlink="http://www.w3.org/1999/xlink" x="0px" y="0px"
	 width="30px" height="30px" viewBox="0 0 30 30" enable-background="new 0 0 30 30" xml:space="preserve">
<g>
	<polygon fill="none" points="16,14.729 16,14 10,14 10,18 16,18 16,17.084 17.499,16.156 20,17.13 20,14.778 17.467,15.668 	"/>
	<polygon fill="none" points="22.69,12.796 22,13.107 22,19 18,17.468 18,20 17,20 17,17.084 17,17.084 17,19 17,20 9,20 8,20 8,12 
		9,12 16.917,12 17,12 17.917,12 17.917,14.411 20.462,13.531 18.594,12.013 19.075,9.855 19.384,9.225 19.57,9 6,9 6,23 24,23 
		24,11.454 23.228,12.386 	"/>
	<g>
		<polygon fill="#FFFFFF" points="24,23 6,23 6,9 19.57,9 21.227,7 4,7 4,25 26,25 26,9.04 24,11.454 		"/>
		<polygon fill="#FFFFFF" points="25.217,4.535 23.175,7 21.518,9 20.539,10.182 20.059,12.339 22.072,11.429 24,9.103 25.742,7 
			26.75,5.783 28,4.247 26.463,3 		"/>
		<path fill="#FFFFFF" d="M18,20v-2.532L22,19v-5.893V13l-1.538,0.531l-2.545,0.88V12H17h-0.083H9H8v8h1h8v-1v-1.916h0V20H18z
			 M16,17.084V18h-6v-4h6v0.729l1.467,0.939L20,14.778v2.352l-2.501-0.974L16,17.084z"/>
	</g>
</g>
</svg>
